<?xml version="1.0" standalone="no"?>
<!DOCTYPE svg PUBLIC "-//W3C//DTD SVG 20010904//EN"
 "http://www.w3.org/TR/2001/REC-SVG-20010904/DTD/svg10.dtd">
<svg version="1.0" xmlns="http://www.w3.org/2000/svg"
 width="512.000000pt" height="512.000000pt" viewBox="0 0 512.000000 512.000000"
 preserveAspectRatio="xMidYMid meet">

<g transform="translate(0.000000,512.000000) scale(0.100000,-0.100000)"
fill="#FFFFFF" stroke="none">
<path d="M381 5100 c-91 -24 -149 -57 -221 -126 -72 -69 -115 -142 -140 -238
-20 -78 -20 -106 -20 -2176 0 -2070 0 -2098 20 -2176 25 -96 68 -169 140 -238
73 -70 131 -102 225 -126 77 -20 111 -20 2175 -20 2070 0 2098 0 2176 20 96
25 169 68 238 140 70 73 102 131 126 225 20 77 20 111 20 2175 0 2064 0 2098
-20 2175 -24 94 -56 152 -126 225 -69 72 -142 115 -238 140 -78 20 -105 20
-2180 19 -2045 0 -2103 -1 -2175 -19z m1757 -1326 c203 -43 336 -174 394 -393
15 -58 20 -109 21 -211 1 -222 -40 -383 -213 -846 -118 -316 -137 -394 -122
-497 25 -164 98 -133 415 172 144 139 158 146 181 90 11 -26 21 10 114 384
142 568 136 540 137 707 0 137 -1 148 -25 190 -14 24 -36 50 -50 58 -38 19
-97 8 -149 -29 -136 -97 -160 -111 -199 -116 -41 -5 -42 -5 -58 32 -13 31 -14
49 -5 98 6 33 19 78 30 101 44 89 176 188 306 229 55 17 96 21 185 22 110 0
118 -1 182 -33 153 -75 238 -240 238 -462 0 -150 -4 -169 -140 -755 -120 -518
-107 -679 60 -729 241 -72 518 90 674 394 81 157 149 377 172 556 l6 52 -73
12 c-194 33 -324 120 -397 266 -46 94 -57 147 -57 284 0 120 1 128 32 192 81
172 239 259 444 245 245 -16 368 -205 369 -564 0 -57 3 -103 6 -103 3 0 34 16
68 35 109 61 163 43 153 -52 -11 -101 -84 -197 -189 -246 -54 -25 -48 -8 -73
-227 -9 -80 -25 -190 -36 -245 -44 -220 -164 -510 -267 -645 -153 -202 -368
-324 -646 -367 -120 -18 -319 -12 -411 13 -229 61 -361 210 -394 444 -8 54 -8
54 -19 27 -26 -61 -108 -175 -176 -243 -172 -171 -382 -263 -571 -251 -207 12
-290 117 -289 367 0 131 19 230 89 472 25 84 41 156 37 160 -4 4 -157 11 -339
14 l-332 7 -5 -24 c-22 -98 -45 -357 -55 -609 -11 -277 -18 -291 -192 -375
-157 -76 -246 -70 -296 20 -67 120 -50 405 46 790 22 87 39 160 38 161 -1 1
-65 -6 -142 -17 -300 -40 -325 -39 -325 12 0 119 220 257 516 324 l70 16 34
82 c127 313 307 596 491 773 238 227 453 297 737 238z"/>
<path d="M4196 3494 c-23 -22 -29 -57 -24 -128 7 -80 35 -144 88 -195 70 -68
73 -63 68 107 -3 114 -8 154 -21 179 -28 52 -79 69 -111 37z"/>
<path d="M1810 3349 c-164 -28 -309 -157 -415 -369 -45 -89 -108 -260 -99
-269 3 -3 167 -7 363 -9 l358 -3 26 98 c42 158 50 217 45 316 -10 191 -99 267
-278 236z"/>
</g>
</svg>
