<svg width="111" height="18" fill="none" xmlns="http://www.w3.org/2000/svg"><path d="M23.343 17.182v-5.1c0-1.99 2.087-3.627 4.682-3.627v-3.11c-1.177 0-2.327.187-3.398.54a9.135 9.135 0 00-2.755 1.45 6.825 6.825 0 00-1.873 2.136 5.34 5.34 0 00-.67 2.612v5.099h4.014z" fill="url(#prefix__paint0_linear_105_1187)"/><path d="M37.35 8.538V5.636h-4.254v-3.71l-4.013 1.036v8.043c0 .87.214 1.7.642 2.487.401.767 1.016 1.451 1.766 2.032.749.6 1.632 1.057 2.622 1.388 1.016.332 2.113.498 3.237.498V14.3c-2.354 0-4.254-1.471-4.254-3.295V8.538h4.254z" fill="url(#prefix__paint1_linear_105_1187)"/><path d="M38.512 17.182h4.04V5.222l-4.04 1.036v10.924z" fill="url(#prefix__paint2_linear_105_1187)"/><path d="M51.706 17.348c2.488 0 4.843-.954 6.288-2.57l-3.318-1.763c-.669.767-1.793 1.223-2.97 1.223-2.006 0-3.612-1.264-3.612-2.798 0-1.555 1.606-2.798 3.612-2.798 1.15 0 2.274.435 2.943 1.181L57.94 8.04c-.695-.767-1.632-1.388-2.675-1.824-1.097-.456-2.328-.684-3.559-.684a9.359 9.359 0 00-2.97.456c-.91.311-1.739.726-2.434 1.265-.696.56-1.258 1.181-1.633 1.886a4.727 4.727 0 00-.588 2.3c0 .789.187 1.576.588 2.302.375.705.937 1.327 1.633 1.886.695.54 1.525.954 2.434 1.265.937.29 1.927.456 2.97.456z" fill="url(#prefix__paint3_linear_105_1187)"/><path d="M65.659 17.327c1.017 0 2.033-.166 2.97-.456.91-.311 1.739-.726 2.434-1.264a6.59 6.59 0 001.633-1.887 4.727 4.727 0 00.588-2.3 4.67 4.67 0 00-.588-2.302 6.326 6.326 0 00-1.632-1.886 8.743 8.743 0 00-2.435-1.264 9.477 9.477 0 00-2.97-.457 9.478 9.478 0 00-2.97.457c-.91.31-1.712.725-2.435 1.264a6.59 6.59 0 00-1.632 1.886c-.374.726-.589 1.493-.589 2.301 0 .788.215 1.576.59 2.301a6.59 6.59 0 001.631 1.886 8.744 8.744 0 002.435 1.265c.936.29 1.953.456 2.97.456zm0-8.706c1.98 0 3.612 1.264 3.612 2.798s-1.632 2.799-3.612 2.799c-1.98 0-3.612-1.265-3.612-2.799s1.632-2.798 3.612-2.798z" fill="url(#prefix__paint4_linear_105_1187)"/><path d="M81.545 17.327c1.017 0 2.033-.166 2.97-.456.91-.311 1.739-.726 2.435-1.264a6.59 6.59 0 001.632-1.887 4.727 4.727 0 00.588-2.3 4.67 4.67 0 00-.588-2.302 6.324 6.324 0 00-1.632-1.886 8.743 8.743 0 00-2.435-1.264 9.477 9.477 0 00-2.97-.457 9.478 9.478 0 00-2.97.457c-.91.31-1.712.725-2.435 1.264a6.59 6.59 0 00-1.632 1.886c-.374.726-.588 1.493-.588 2.301 0 .788.214 1.576.588 2.301a6.59 6.59 0 001.632 1.886 8.744 8.744 0 002.435 1.265c.936.29 1.953.456 2.97.456zm0-8.706c1.98 0 3.612 1.264 3.612 2.798s-1.632 2.799-3.612 2.799c-1.98 0-3.612-1.265-3.612-2.799s1.632-2.798 3.612-2.798z" fill="url(#prefix__paint5_linear_105_1187)"/><path d="M90.769 17.182h4.04V.474l-4.04 1.037v15.67z" fill="url(#prefix__paint6_linear_105_1187)"/><path d="M103.482 17.265c1.043 0 2.06-.166 3.023-.498a7.89 7.89 0 002.462-1.326l-2.837-2.073c-.695.58-1.632.891-2.648.891-1.311 0-2.462-.539-3.104-1.327H111V11.42c0-1.554-.776-3.026-2.194-4.125-1.418-1.098-3.318-1.72-5.324-1.72-2.034 0-3.907.622-5.351 1.72-1.418 1.099-2.194 2.57-2.194 4.125 0 1.555.776 3.027 2.194 4.125 1.444 1.099 3.317 1.72 5.351 1.72zm-3.104-7.338c.642-.809 1.793-1.348 3.104-1.348 1.284 0 2.434.54 3.103 1.348h-6.207z" fill="url(#prefix__paint7_linear_105_1187)"/><path d="M11.424 0H6.81L.119 17.285h4.65L9.126 4.892l2.178 6.222 2.16 6.17h4.633L11.424 0z" fill="url(#prefix__paint8_linear_105_1187)"/><path d="M9.12 17.285l-2.746-4.25h5.467l-2.721 4.25z" fill="#D4218B"/><defs><linearGradient id="prefix__paint0_linear_105_1187" x1="23.678" y1="5.346" x2="23.678" y2="17.182" gradientUnits="userSpaceOnUse"><stop stop-color="#EF59B2"/><stop offset="1" stop-color="#C40074"/></linearGradient><linearGradient id="prefix__paint1_linear_105_1187" x1="33.216" y1="1.925" x2="33.216" y2="17.41" gradientUnits="userSpaceOnUse"><stop stop-color="#EF59B2"/><stop offset="1" stop-color="#C40074"/></linearGradient><linearGradient id="prefix__paint2_linear_105_1187" x1="40.532" y1="5.221" x2="40.532" y2="17.182" gradientUnits="userSpaceOnUse"><stop stop-color="#EF59B2"/><stop offset="1" stop-color="#C40074"/></linearGradient><linearGradient id="prefix__paint3_linear_105_1187" x1="51.037" y1="5.532" x2="51.037" y2="17.348" gradientUnits="userSpaceOnUse"><stop stop-color="#EF59B2"/><stop offset="1" stop-color="#C40074"/></linearGradient><linearGradient id="prefix__paint4_linear_105_1187" x1="65.659" y1="5.511" x2="65.659" y2="17.327" gradientUnits="userSpaceOnUse"><stop stop-color="#EF59B2"/><stop offset="1" stop-color="#C40074"/></linearGradient><linearGradient id="prefix__paint5_linear_105_1187" x1="81.545" y1="5.511" x2="81.545" y2="17.327" gradientUnits="userSpaceOnUse"><stop stop-color="#EF59B2"/><stop offset="1" stop-color="#C40074"/></linearGradient><linearGradient id="prefix__paint6_linear_105_1187" x1="92.789" y1=".474" x2="92.789" y2="17.182" gradientUnits="userSpaceOnUse"><stop stop-color="#EF59B2"/><stop offset="1" stop-color="#C40074"/></linearGradient><linearGradient id="prefix__paint7_linear_105_1187" x1="103.468" y1="5.574" x2="103.468" y2="17.265" gradientUnits="userSpaceOnUse"><stop stop-color="#EF59B2"/><stop offset="1" stop-color="#C40074"/></linearGradient><linearGradient id="prefix__paint8_linear_105_1187" x1="9.108" y1="0" x2="9.108" y2="17.285" gradientUnits="userSpaceOnUse"><stop stop-color="#EF59B2"/><stop offset="1" stop-color="#C40074"/></linearGradient></defs></svg>