<svg width="110" height="18" viewBox="0 0 110 18" fill="none" xmlns="http://www.w3.org/2000/svg">
<path d="M22.3432 17.182V12.0826C22.3432 10.0926 24.4301 8.45505 27.0254 8.45505V5.3457C25.8482 5.3457 24.6977 5.53226 23.6274 5.88466C22.6107 6.21632 21.6743 6.71382 20.8716 7.33569C20.0689 7.93683 19.4536 8.66234 18.9987 9.47077C18.5439 10.2999 18.3298 11.1706 18.3298 12.0826V17.182H22.3432Z" fill="white"/>
<path d="M36.3501 8.53797V5.63591H32.096V1.92542L28.0826 2.96186V11.0047C28.0826 11.8753 28.2967 12.7045 28.7248 13.4922C29.1261 14.2592 29.7415 14.9432 30.4907 15.5236C31.2398 16.1248 32.1227 16.5808 33.1127 16.9125C34.1294 17.2441 35.2264 17.41 36.3501 17.41V14.3006C33.9956 14.3006 32.096 12.8289 32.096 11.0047V8.53797H36.3501Z" fill="white"/>
<path d="M37.5119 17.1819H41.552V5.22131L37.5119 6.25776V17.1819Z" fill="white"/>
<path d="M50.7062 17.3478C53.1945 17.3478 55.549 16.3942 56.9938 14.7774L53.6761 13.0154C53.0072 13.7824 51.8835 14.2384 50.7062 14.2384C48.6996 14.2384 47.0942 12.9739 47.0942 11.44C47.0942 9.88532 48.6996 8.64158 50.7062 8.64158C51.8567 8.64158 52.9804 9.07688 53.6493 9.82313L56.9403 8.04044C56.2446 7.27346 55.3082 6.65159 54.2647 6.21628C53.1677 5.76025 51.937 5.53223 50.7062 5.53223C49.6628 5.53223 48.6728 5.67733 47.7364 5.98826C46.8267 6.2992 45.9972 6.71378 45.3016 7.25273C44.6059 7.81242 44.0441 8.43429 43.6695 9.13907C43.2682 9.86459 43.0809 10.6523 43.0809 11.44C43.0809 12.2277 43.2682 13.0154 43.6695 13.7409C44.0441 14.4457 44.6059 15.0676 45.3016 15.6272C45.9972 16.1662 46.8267 16.5808 47.7364 16.8917C48.6728 17.1819 49.6628 17.3478 50.7062 17.3478Z" fill="white"/>
<path d="M64.6589 17.327C65.6756 17.327 66.6923 17.1612 67.6287 16.871C68.5384 16.56 69.3679 16.1455 70.0635 15.6065C70.7591 15.0468 71.2942 14.4249 71.6956 13.7202C72.0969 12.9946 72.2842 12.2069 72.2842 11.4192C72.2842 10.6108 72.0969 9.84383 71.6956 9.11832C71.2942 8.41353 70.7591 7.77093 70.0635 7.23198C69.3411 6.69303 68.5384 6.27845 67.6287 5.96751C66.6923 5.65658 65.6756 5.51147 64.6589 5.51147C63.6422 5.51147 62.6254 5.65658 61.689 5.96751C60.7793 6.27845 59.9766 6.69303 59.2542 7.23198C58.5586 7.79166 58.0235 8.41353 57.6221 9.11832C57.2476 9.84383 57.0335 10.6108 57.0335 11.4192C57.0335 12.2069 57.2476 12.9946 57.6221 13.7202C58.0235 14.4249 58.5586 15.0468 59.2542 15.6065C59.9766 16.1455 60.7793 16.56 61.689 16.871C62.6254 17.1612 63.6422 17.327 64.6589 17.327ZM64.6589 8.62082C66.6388 8.62082 68.2709 9.88529 68.2709 11.4192C68.2709 12.9532 66.6388 14.2177 64.6589 14.2177C62.679 14.2177 61.0468 12.9532 61.0468 11.4192C61.0468 9.88529 62.679 8.62082 64.6589 8.62082Z" fill="white"/>
<path d="M80.545 17.327C81.5617 17.327 82.5784 17.1612 83.5148 16.871C84.4245 16.56 85.254 16.1455 85.9496 15.6065C86.6453 15.0468 87.1803 14.4249 87.5817 13.7202C87.983 12.9946 88.1703 12.2069 88.1703 11.4192C88.1703 10.6108 87.983 9.84383 87.5817 9.11832C87.1803 8.41353 86.6453 7.77093 85.9496 7.23198C85.2272 6.69303 84.4245 6.27845 83.5148 5.96751C82.5784 5.65658 81.5617 5.51147 80.545 5.51147C79.5283 5.51147 78.5115 5.65658 77.5751 5.96751C76.6654 6.27845 75.8627 6.69303 75.1403 7.23198C74.4447 7.79166 73.9096 8.41353 73.5082 9.11832C73.1337 9.84383 72.9196 10.6108 72.9196 11.4192C72.9196 12.2069 73.1337 12.9946 73.5082 13.7202C73.9096 14.4249 74.4447 15.0468 75.1403 15.6065C75.8627 16.1455 76.6654 16.56 77.5751 16.871C78.5115 17.1612 79.5283 17.327 80.545 17.327ZM80.545 8.62082C82.5249 8.62082 84.157 9.88529 84.157 11.4192C84.157 12.9532 82.5249 14.2177 80.545 14.2177C78.5651 14.2177 76.933 12.9532 76.933 11.4192C76.933 9.88529 78.5651 8.62082 80.545 8.62082Z" fill="white"/>
<path d="M89.769 17.1819H93.8091V0.474365L89.769 1.51082V17.1819Z" fill="white"/>
<path d="M102.482 17.2649C103.525 17.2649 104.542 17.0991 105.505 16.7674C106.441 16.4565 107.271 16.0004 107.967 15.4407L105.13 13.3678C104.435 13.9482 103.498 14.2592 102.482 14.2592C101.171 14.2592 100.02 13.7202 99.378 12.9325H110V11.4193C110 9.86463 109.224 8.39287 107.806 7.29424C106.388 6.1956 104.488 5.57373 102.482 5.57373C100.448 5.57373 98.5754 6.1956 97.1306 7.29424C95.7125 8.39287 94.9366 9.86463 94.9366 11.4193C94.9366 12.974 95.7125 14.4457 97.1306 15.5444C98.5754 16.643 100.448 17.2649 102.482 17.2649ZM99.378 9.92682C100.02 9.11839 101.171 8.57943 102.482 8.57943C103.766 8.57943 104.916 9.11839 105.585 9.92682H99.378Z" fill="white"/>
<path d="M10.8101 1H6.46197L0.159912 17.2849H4.54051L8.64415 5.60852L10.6964 11.4711L12.7316 17.2849H17.0959L10.8101 1Z" fill="white"/>
<path d="M8.63898 17.2849L6.05255 13.2808H11.2033L8.63898 17.2849Z" fill="url(#paint0_linear_61_1173)"/>
<defs>
<linearGradient id="paint0_linear_61_1173" x1="8.62793" y1="13.2808" x2="8.62793" y2="17.2849" gradientUnits="userSpaceOnUse">
<stop stop-color="#EF59B2"/>
<stop offset="1" stop-color="#C40074"/>
</linearGradient>
</defs>
</svg>
