<svg width="406" height="58" fill="none" xmlns="http://www.w3.org/2000/svg"><path d="M12.098.884H.216v55.445h11.882V.884z" fill="#2F2443"/><path d="M23.979.884l16.633 55.445H28.73L12.097.884H23.98z" fill="#FFC56E"/><path d="M52.493.884H40.612v55.445h11.88V.884zM56.832 36.526V12.764h11.09v23.762c0 6.099 4.672 9.9 11.96 9.9 7.049 0 11.96-3.484 11.96-9.9V12.764h11.089v43.564h-11.09v-4.911c-2.613 3.723-7.049 5.703-14.336 5.703-12.04 0-20.673-7.762-20.673-20.594zM111.416 40.883V22.27h-5.703v-9.505h5.703V.884h11.089v11.881h16.792v9.505h-16.792v18.297c0 4.277 2.614 5.465 5.624 5.465h11.168v10.297h-13.624c-7.049 0-14.257-3.09-14.257-15.446zM142.838 12.764h11.089v7.525c3.248-5.386 8.713-7.525 16.317-7.525h4.911v9.505h-4.911c-10.218 0-16.317 6.495-16.317 13.307v20.752h-11.089V12.764zM187.959 12.765v43.564H176.87V12.765h11.089z" fill="#2F2443"/><path d="M187.959.884H176.87v7.129h11.089V.884z" fill="#FFC56E"/><path d="M197.113 40.883V22.27h-5.703v-9.505h5.703V.884h11.089v11.881h16.791v9.505h-16.791v18.297c0 4.277 2.613 5.465 5.623 5.465h11.168v10.297H211.37c-7.049 0-14.257-3.09-14.257-15.446zM228.535 12.764h11.089v7.525c3.248-5.386 8.713-7.525 16.317-7.525h4.911v9.505h-4.911c-10.218 0-16.317 6.495-16.317 13.307v20.752h-11.089V12.764zM260.631 34.546c0-14.732 7.525-22.574 22.812-22.574 7.841 0 12.356 2.06 14.891 5.861v-5.069h11.089v43.564h-11.089v-5.149c-2.614 3.881-7.129 5.94-14.891 5.94-15.842 0-22.812-8.474-22.812-22.573zm24.396 11.881c8.396 0 13.307-4.119 13.307-11.881 0-7.445-4.674-11.881-13.307-11.881-8.396 0-13.307 4.119-13.307 11.881 0 7.445 4.673 11.881 13.307 11.881zM336.771 22.665c-8.396 0-13.306 4.119-13.306 11.881 0 7.445 4.673 11.881 13.306 11.881 6.495 0 10.931-2.455 12.594-7.208h11.485c-1.821 11.723-10.534 17.9-24.079 17.9-15.841 0-24.395-8.474-24.395-22.573 0-14.732 9.108-22.574 24.395-22.574 13.941 0 22.258 6.574 24 17.742h-11.485c-1.663-4.514-5.94-7.049-12.515-7.049zM374.976.884v29.782l15.762-17.901h13.465L386.54 32.487l19.247 23.842h-13.465l-12.831-16.08-4.515 5.07v11.01h-11.089V.884h11.089z" fill="#2F2443"/></svg>