<?xml version="1.0" standalone="no"?>
<!DOCTYPE svg PUBLIC "-//W3C//DTD SVG 20010904//EN"
 "http://www.w3.org/TR/2001/REC-SVG-20010904/DTD/svg10.dtd">
<svg version="1.0" xmlns="http://www.w3.org/2000/svg"
 width="260.000000pt" height="260.000000pt" viewBox="0 0 260.000000 260.000000"
 preserveAspectRatio="xMidYMid meet">
<metadata>
Created by potrace 1.14, written by Peter Selinger 2001-2017
</metadata>
<g transform="translate(0.000000,260.000000) scale(0.100000,-0.100000)"
fill="#000000" stroke="none">
<path d="M1053 2183 c-3 -10 -67 -173 -141 -363 -73 -190 -140 -363 -147 -385
-7 -22 -28 -74 -45 -115 -17 -41 -33 -82 -35 -90 -2 -8 -74 -195 -160 -415
-85 -220 -155 -403 -155 -407 0 -5 107 -8 239 -8 l239 0 10 28 c6 15 43 119
82 232 83 236 263 749 291 830 11 30 29 82 41 115 11 33 24 63 27 68 4 4 27
-50 51 -120 23 -71 47 -132 51 -137 5 -6 9 -17 9 -25 0 -8 13 -51 29 -95 54
-147 143 -401 146 -416 3 -8 11 -33 19 -55 23 -63 137 -388 143 -408 5 -16 25
-17 244 -17 132 0 239 4 239 8 0 7 -119 317 -253 662 -14 36 -48 124 -75 195
-81 210 -171 443 -212 550 -22 55 -63 163 -93 240 l-53 140 -242 3 c-224 2
-243 1 -249 -15z"/>
<path d="M1035 840 c-10 -4 7 -37 61 -120 41 -63 77 -122 81 -130 4 -8 9 -17
12 -20 4 -3 30 -42 60 -87 l53 -83 88 138 c48 75 110 173 138 216 28 44 49 82
47 84 -6 7 -523 8 -540 2z"/>
</g>
</svg>
